<svg xmlns="http://www.w3.org/2000/svg" width="220" height="227" fill="none" xmlns:v="https://vecta.io/nano"><style><![CDATA[.B{fill:#242e39}.C{fill:#f99d77}.D{fill:#134785}.E{opacity:.1}.F{fill:#000}.G{fill:#001f42}.H{fill:#ffcbae}.I{fill:#00152d}]]></style><ellipse cx="109.784" cy="116.326" rx="109.784" ry="110.484" fill="#fcdf69"/><path opacity=".6" d="M206.491 114.819c0 12.073-9.787 21.86-21.86 21.86-.588 0-1.171-.023-1.748-.069.026-.256.039-.516.039-.78a7.76 7.76 0 0 0-7.759-7.759 7.74 7.74 0 0 0-5.697 2.492 21.79 21.79 0 0 1-6.695-15.744c0-12.073 9.787-21.86 21.86-21.86s21.86 9.787 21.86 21.86zm-37.658 16.523c-4.352-4.162-7.062-10.026-7.062-16.523 0-12.625 10.235-22.86 22.86-22.86s22.86 10.235 22.86 22.86-10.235 22.86-22.86 22.86c-.644 0-1.281-.026-1.912-.078-.801 3.432-3.88 5.989-7.556 5.989a7.76 7.76 0 0 1-7.759-7.76c0-1.672.529-3.221 1.429-4.488zM81.623 26.276c14.614-8.437 33.3-3.43 41.737 11.184s3.431 33.3-11.183 41.737-33.3 3.43-41.737-11.183a30.42 30.42 0 0 1-3.873-18.955c3.331 2.671 8.091 3.178 12.011.915a10.67 10.67 0 0 0 3.904-14.572 10.63 10.63 0 0 0-6.474-4.969 30.63 30.63 0 0 1 5.616-4.157zM65.666 48.248c-.631-.637-1.191-1.365-1.66-2.178a10.67 10.67 0 0 1 3.905-14.572 10.62 10.62 0 0 1 6.909-1.313 31.62 31.62 0 0 1 6.304-4.775c15.092-8.713 34.39-3.543 43.104 11.55s3.542 34.39-11.55 43.103-34.39 3.542-43.103-11.549a31.42 31.42 0 0 1-3.908-20.266zm-1.8 103.227c3.74 9.213-.696 19.714-9.909 23.454-5.455 2.215-11.362 1.563-16.05-1.251 1.605-1.336 2.24-3.605 1.412-5.644a4.93 4.93 0 0 0-6.424-2.714c-.671.272-1.25.676-1.719 1.169a18.22 18.22 0 0 1-.674-1.469c-3.74-9.213.696-19.714 9.909-23.454s19.714.696 23.454 9.909zm-33.355 15.894a19.3 19.3 0 0 1-.935-1.973c-3.948-9.725.735-20.808 10.46-24.756s20.809.734 24.757 10.459-.735 20.809-10.459 24.757c-5.917 2.402-12.338 1.609-17.348-1.572a4.83 4.83 0 0 1-.38.173 4.93 4.93 0 0 1-6.424-2.714c-.603-1.485-.43-3.093.33-4.374z" fill-rule="evenodd" fill="#fff"/><circle opacity=".6" cx="161.771" cy="61.887" r="11.1" fill="#fff"/><circle opacity=".6" cx="179.801" cy="181.292" r="6.931" fill="#fff"/><circle opacity=".6" cx="35.637" cy="95.872" r="14.901" fill="#fff"/><mask id="A" mask-type="alpha" maskUnits="userSpaceOnUse" x="0" y="5" width="220" height="222"><ellipse cx="109.784" cy="116.326" rx="109.784" ry="110.484" fill="#fcdf69"/></mask><g mask="url(#A)"><path d="M127.354 166.441l-15.74 164.001c-.524 2.649-.841 17.05-1.034 35.562v119.073H47.07s1.655-132.026 4.511-155.283l20.802-163.353h54.971z" fill="#0b2340"/><path d="M98.385 396.021l.207-27.589c0-8.939 0-17.933.483-26.789.855-18.07 4.525-35.865 7.132-53.687s4.773-35.866 6.745-53.799l6.235-60.46c0-.125.221-.125.207 0-2.993 35.975-6.331 71.951-11.311 107.72-1.242 8.902-2.621 17.781-4.138 26.637-1.476 8.98-2.952 17.933-3.656 27.023s-.814 17.795-.897 26.692l-.276 27.589-.4 78.269c0 .387-.621.373-.621 0l.29-71.606z" class="B"/><path d="M140.803 166.441l-29.134 164.001c-.524 2.649-.841 17.05-1.034 35.562L80.287 166.386l60.516.055z" class="I"/><path d="M121.105 486.346l63.454-2.689-16.622-151.587c-.842-22.223-15.602-165.684-15.602-165.684H74.769s4.883 33.106 13.256 54.115a96.62 96.62 0 0 1 16.236 7.408l4.897 112.093c.538 23.381 11.946 146.344 11.946 146.344z" fill="#0b2340"/><path d="M146.666 174.897l9.145 108.355c3.311 36.1 16.554 160.649 19.644 180.706 0 .138-.18.193-.207 0-6.401-35.672-10.125-83.608-14.14-119.625s-7.269-72.117-10.18-108.217l-4.704-61.302c-.055-.221.442-.207.442.083z" fill="#00142d"/><path d="M85.267 219.066c6.575 2.394 12.93 5.352 18.995 8.842.051.024.091.067.11.12s.017.112-.007.163-.067.091-.12.11a.22.22 0 0 1-.163-.006c-6.4-2.759-12.925-5.366-19.16-8.47-.05-.023-.095-.055-.132-.095a.42.42 0 0 1-.075-.457.41.41 0 0 1 .095-.132.44.44 0 0 1 .138-.086.42.42 0 0 1 .16-.026.43.43 0 0 1 .158.037zm-2.055-43.962c0-.221.414-.276.4 0 0 7.6.441 14.291 1.076 21.381.303 3.297 2.952 21.519 8.663 20.195.966-.235 1.379-1.173 1.6-2.607a22.79 22.79 0 0 0-.759-5.518c-.635-3.821-1.145-7.642-1.476-11.491a105.26 105.26 0 0 1 .234-21.56c.011-.041.035-.077.069-.103s.075-.039.117-.039.084.014.117.039.058.062.069.103a196.51 196.51 0 0 0 1.738 29.74c.717 4.746 3.104 11.877-1.849 12.608s-8.276-11.214-8.925-14.47a109.07 109.07 0 0 1-1.076-28.278h0z" class="I"/><path d="M93.213 217.176c.514 1.231.947 2.493 1.297 3.78.358.995.535 2.046.524 3.104 0 .193-.29.22-.386.083-.613-.93-1.078-1.949-1.379-3.021l-1.297-3.504a.66.66 0 0 1 .4-.842.66.66 0 0 1 .842.4h0z" class="I"/><path d="M24.889 162.044c-7.27-7.502-5.325-25.671 59.937-78.32 20.692-16.699 19.451-2.736 12.525 8.635s-19.078 33.766-19.078 33.766-12.856 33.684-16.87 35.582-29.354 7.747-36.514.337z" class="D"/><path d="M161.991 193.285c-.22.248-95.65.538-96.561-.442-1.214-1.379 19.064-104.12 32.665-118.135 2.4-2.483 14.539-4.332 20.346.428 16.195 13.243 20.692 25.754 24.83 36.348 3.021 7.849 6.622 21.216 9.836 34.914 5.338 22.567 9.669 45.99 8.883 46.887z" class="D"/><path d="M86.55 97.289l-2.759 8.842a55.94 55.94 0 0 1 .083-5.89c0-.124-.193-.152-.207 0l-.331 2.276-.359 2.18c-.188 1.528-.267 3.068-.234 4.607a.43.43 0 0 0 0 .235l-.855 3.076a567.2 567.2 0 0 0-4.704 18.098c-2.924 12.121-5.513 24.365-7.766 36.734-1.297 6.967-2.511 13.974-3.338 21.009-.007.019-.008.039-.006.059s.01.038.022.054.027.029.044.038.037.014.057.014.039-.004.057-.014.033-.022.044-.038.019-.035.022-.054.001-.04-.006-.059l3.945-18.429 3.959-18.278 8.47-36.61 4.4-17.781a.27.27 0 0 0-.054-.2.27.27 0 0 0-.18-.103.27.27 0 0 0-.2.054c-.057.044-.094.109-.103.18h0z" class="B"/><g class="E F"><path d="M119.077 75.577H97.378l.29-.359h20.912l.152.124.345.235zm5.738 5.256H94.164c0-.124.11-.235.179-.359h30.099l.372.359zm4.773 5.228h-37.81l.138-.345h37.396l.276.345zm3.945 5.269H89.722l.138-.345h43.439l.234.345zm3.215 5.256h-48.86l.124-.359h48.529l.207.359zm2.621 5.255H86.177c0-.124.083-.248.11-.358h52.901c.068.115.128.235.18.358h0zm2.207 5.243H84.591l.097-.345h56.763a3.46 3.46 0 0 1 .125.345h0zm2.041 5.255H83.046l.097-.345h60.336c.04.117.086.232.138.345h0zm1.793 5.255H81.584c0-.124 0-.234.097-.344h63.606v.124c.035.077.076.151.124.22h0zm1.601 5.256H80.177c0-.124.069-.248.097-.358h66.641c.028.11.069.193.097.358zm1.489 5.256H78.825l.083-.359h69.496c.038.118.071.238.096.359h0zm1.407 5.242H77.515a3.07 3.07 0 0 1 .083-.345h72.228c.013.11.055.221.082.345zm1.339 5.256H76.232l.083-.345h74.849l.083.345zm1.269 5.255h-77.58l.083-.359h77.359c.052.117.098.237.138.359h0zm1.241 5.256H73.749l.083-.359h79.815l.11.359zm1.186 5.297H72.59l.083-.345h82.269v.345zm1.173 5.2H71.459c.008-.115.008-.23 0-.345h84.504l.152.345zm1.117 5.256H70.328a2.54 2.54 0 0 0 .069-.345h86.752c.042.124.056.235.083.345zm1.076 5.255H69.265a3.1 3.1 0 0 0 .069-.358h88.905l.069.358zm1.049 5.242H68.231c0-.11 0-.22.069-.344h91.043a2.82 2.82 0 0 0 .014.344h0zm.979 5.256H67.238v-.345h92.988c.069.111.096.235.11.345zm.91 5.255H66.313v-.344h94.823a.89.89 0 0 1 .11.344zm.731 5.257H65.513v-.359h96.396a3.34 3.34 0 0 1 .068.359h0z" class="E"/><path d="M160.75 182.939l.345 2.014v8.373h-.345v-10.387zm-5.256-26.141l.359 1.628v34.969h-.359v-36.597zm-5.242-22.126l.345 1.38v57.398h-.345v-58.778zm-4.966-17.422v76.227h-.345v-77.152c.152.304.249.607.345.925zm-5.2-13.767v90.009h-.317v-90.809l.317.8zm-5.242-10.125v100.161h-.359V92.82a5.24 5.24 0 0 1 .359.538zm-5.256-7.297v107.458h-.358V85.633l.082.097.276.331zm-5.255-5.698v113.114h-.345V80.019l.345.345zm-5.256-4.731v117.901h-.345V75.343l.276.235c.028.01.053.03.069.055h0zm-5.242-2.745v120.646h-.359V72.79l.359.097zm-5.256-.69v121.322h-.358V72.128l.358.069zm-5.255.442v120.867h-.345V72.708l.345-.069zm-5.256 2.138v118.714h-.345V75.163c.11-.138.235-.262.345-.386zm-5.2 8.911v109.776h-.345V84.488a1.95 1.95 0 0 1 .345-.8zm-5.297 13.836v95.899h-.359V98.614l.359-1.09zm-5.256 17.422v78.435h-.345v-77.18l.345-1.255zm-5.256 20.223v58.143h-.345V136.59l.345-1.421zm-5.255 22.843v35.189h-.345v-33.589c.008-.115.008-.23 0-.345.166-.414.262-.841.345-1.255zm-5.242 26.347v8.677h-.359v-6.497c0-.193.069-.386.11-.593s0-.221 0-.345l.248-1.242z" class="E"/></g><path d="M128.578 102.272c4.478 11.854 37.193 50.179 36.02 52.779-2.267 3.66-20.629 4.956-20.629 4.956 0 5.73 6.478 21.282 9.002 20.001s34.42-6.644 37.171-24.957-40.145-71.534-67.467-85.592c-9.637-3.787-1.129 14.235 5.903 32.813z" class="D"/><g class="E F"><path d="M122.484 75.577h-3.242a8.5 8.5 0 0 1 3.242 0h0zm12.719 5.256h-18.885v-.359h18.209l.358.179a2.85 2.85 0 0 0 .318.179zm10.18 5.242h-27.216l-.166-.345h26.734l.262.138.344.193.042.014zm18.498 10.511h-38.624l-.304-.359h38.294l.634.359zm8.304 5.256h-42.266l-.331-.359h42.046l.551.359zm7.587 5.241h-44.969l-.318-.331h44.791l.496.331zm15.312 41.673l-.166.359h-39.672l-.249-.359h40.087zm-17.836 26.265l-.29.344h-3.642l-.248-.344h4.18z" class="E"/><path d="M197.526 124.064c.125.187.24.38.344.579v17.547l-.344.952v-19.078zm-4.911-6.11v35.479l-.331.579v-36.417a4.33 4.33 0 0 1 .331.359h0zm-36.762 21.063v11.036l-.359-.524v-9.863l.359-.649zm-15.767-55.715v29.327l-.276-.29V83.123l.276.179zm-5.242-2.649v26.472l-.317-.331V80.585l.317.069zm-5.256-2.538v23.368a5.03 5.03 0 0 0-.358-.4v-23.12l.358.152zm-5.255-2.124v19.423l-.345-.428V75.908l.345.083zm-5.256-.373v12.139l-.345-.621V75.784l.345-.166z" class="E"/></g><path d="M108.322 96.3l-4.249-7.518-5.49 5.987 1.338 5.959 5.421.704 2.98-5.132z" class="G"/><path d="M105.342 101.432l2.594 60.889-11.408 20.139-5.931-22.664 9.325-59.067 5.421.703z" class="G"/><path d="M98.261 73.963l5.201 12.525 15.463-16.112 4.497 5.063s-15.022 25.492-15.174 24.347l-5.311-10.787-7.311 7.628.386-18.967 2.249-3.697z" class="D"/><path d="M95.24 87.247l.566-9.408c0-.11.179-.152.207 0 .662 3.007 0 14.981 0 17.836.317-.331 6.897-6.732 6.897-6.621 1.145 1.71 5.049 9.573 5.311 10.277 2.372-4.042 11.49-18.76 14.304-22.595.016-.02.038-.034.063-.039s.051-.002.073.009.041.03.051.053a.11.11 0 0 1 .007.074c-2.097 4.276-14.14 24.099-14.333 24.044-2.034-3.706-3.875-7.513-5.518-11.408-1.103 1.379-7.711 8.594-7.752 8.125a98.5 98.5 0 0 1 .124-10.346h0z" class="G"/><path d="M85.35 144.866c-6.263.594-12.001 3.021-17.864 5.118-.026 0-.05.01-.068.028s-.028.043-.028.069.01.05.028.068.043.028.068.028c5.807-2.138 11.974-3.104 17.85-5.021.235-.055.179-.317.014-.29zm3.614 10.388a16.58 16.58 0 0 0-4.069 1.379l-4.138 1.821-8.277 3.973c-.124 0 0 .262 0 .207l8.359-3.587 4.235-1.655a19.71 19.71 0 0 0 3.931-1.724.21.21 0 0 0 .14-.076c.035-.042.052-.097.046-.152s-.033-.105-.075-.14-.098-.052-.152-.046h0z" class="B"/><path d="M113.675 67.176c10.456 0 24.015 9.365 25.185 22.759 0 5.978-1.147 40.297 0 53.433 1.255 14.38 14.938 72.904 14.938 72.904l-14.938-5.343-7.196 11.97s-8.462-48.027-10.33-68.916.789-72.506-.377-75.685-4.115-7.728-7.67-7.848-10.457 5.031-14.759 10.478-10.514 44.337-14.084 58.478-10.04 71.524-10.04 71.524l-13.937-9.324-14.161 11.256 16.988-76.107c3.182-14.757 6.763-43.524 24.435-58.456 10.113-8.533 19.688-11.135 25.947-11.122z" class="C"/><path d="M103.084 87.149c3.628.91 12.801-4.469 16.291-10.677.248-.428-1.379-17.602-1.297-21.036 0-.703-21.602 4.98-21.602 4.98a72.63 72.63 0 0 1 1.931 13.215c.124 6.097-.028 12.318 4.676 13.519z" class="H"/><path d="M117.209 55.45c-.855 4.718-4.538 19.85-16.788 19.974-.664.01-1.328-.031-1.986-.124v-1.669a72.37 72.37 0 0 0-1.931-13.201s16.677-4.4 20.705-4.98z" fill="#d3ab96"/><path d="M89.772 17.846s-6.152 3.2-6.745 9.78 1.462 13.243 2.041 13.519 4.704-23.299 4.704-23.299z" class="B"/><path d="M118.796 26.33c3.158 7.339 1.558 29.713-3.311 35.203-7.049 7.946-19.795 10.028-26.844 1.283-6.897-8.484-4.249-37.603 1.297-42.763 8.166-7.477 24.209-4.566 28.858 6.276z" class="H"/><path d="M101.608 41.931s.11.083.096.152c-.138 1.504 0 3.242 1.269 3.835v.083c-1.669-.345-1.752-2.662-1.365-4.069z" class="B"/><path d="M103.056 40.455c2.428 0 2.304 4.856 0 4.869s-2.042-4.856 0-4.869zm-10.194 1.49s-.11 0-.11.124c0 1.517-.248 3.242-1.628 3.711v.083c1.738-.179 1.973-2.483 1.738-3.918z" class="B"/><path d="M91.551 40.331c-2.428-.248-2.759 4.607-.51 4.842s2.538-4.635.51-4.842zm13.492-2.055a18.07 18.07 0 0 1-1.876-.717 3.24 3.24 0 0 1-1.766-1.09 1.02 1.02 0 0 1 .193-1.242 2.54 2.54 0 0 1 1.27-.454 2.53 2.53 0 0 1 1.323.261 3.71 3.71 0 0 1 2.111 1.683c.099.188.141.401.121.613a1.1 1.1 0 0 1-.236.579 1.09 1.09 0 0 1-1.14.366h0zm-15.312-.456c.676-.097 1.283-.29 1.945-.441a3.3 3.3 0 0 0 1.904-.842c.141-.181.217-.405.217-.634a1.04 1.04 0 0 0-.217-.635 2.53 2.53 0 0 0-1.188-.616 2.52 2.52 0 0 0-1.336.078c-.924.148-1.757.641-2.331 1.379-.115.172-.178.374-.184.581a1.1 1.1 0 0 0 .152.59c.105.179.258.324.442.419a1.11 1.11 0 0 0 .597.121h0zm12.884 18.168c-.373.345-.745.828-1.297.855a3.96 3.96 0 0 1-1.559-.372s-.097 0-.069.083c.205.304.49.546.824.7s.702.212 1.066.17a1.59 1.59 0 0 0 .814-.459c.219-.231.363-.523.414-.837-.028-.152-.138-.179-.193-.138zm-6.111-2.897a6.22 6.22 0 0 0 2.386 1.959c.529.216 1.11.269 1.669.152 1.214-.29 1.269-1.38 1.076-2.345a6.46 6.46 0 0 0-.496-1.476c-1.321 1.053-2.947 1.653-4.635 1.71h0z" class="B"/><path d="M98.89 55.091c.529.216 1.11.269 1.669.152 1.214-.29 1.269-1.38 1.076-2.345a2.84 2.84 0 0 0-2.745 2.193h0z" fill="#eb9481"/><path d="M117.692 44.552c-2.469.483-4.511-7.021-5.007-9.877-.442-2.524-.456-10.373-.511-10.911s-11.173 5.821-17.064 3.435-9.38-8.277-9.201-10.773 8.277-8.277 14.884-7.904 14.525 9.491 14.525 9.491a30.08 30.08 0 0 1-2.497-4.138c.125-.29 4.139 1.821 4.635 4.897 0 0-.455-3.849-.124-3.89s3.27 3.518 2.276 5.876c0 0 3.449 3.669 3.435 7.284s-2.455 15.919-5.352 16.512z" class="B"/><path d="M90.917 25.502c1.699 1.143 3.558 2.026 5.518 2.621 2.215.416 4.497.284 6.649-.386a20.78 20.78 0 0 0 6.069-2.759c1.642-1.09 3.131-2.455 4.87-3.407.427-.235.841.386.551.745-3.089 3.528-7.227 5.975-11.808 6.98a12.55 12.55 0 0 1-6.421-.278c-2.08-.648-3.956-1.827-5.442-3.419 0 0-.028-.124.014-.096z" class="B"/><path d="M116.078 44.717s4.332-7.546 7.711-6.07.58 12.125-3.09 13.877c-.454.256-.955.417-1.472.474a3.86 3.86 0 0 1-1.541-.142c-.499-.151-.962-.401-1.362-.735s-.727-.746-.963-1.211l.717-6.194z" class="H"/><path d="M122.906 41.683c.069 0 .083 0 0 .097-2.552 1.379-3.724 3.904-4.483 6.538a2.14 2.14 0 0 1 1.369-1.147 2.14 2.14 0 0 1 .913-.047 2.13 2.13 0 0 1 .849.339v.138a2.37 2.37 0 0 0-1.438.126c-.455.19-.839.518-1.1.937a11.72 11.72 0 0 0-1.062 2.221c-.096.248-.538.166-.469-.124-.386-3.435 1.821-8.415 5.421-9.077z" class="B"/><path d="M147.897 35.018c.673.739 1.196 1.605 1.538 2.549s.497 1.946.456 2.95a9.02 9.02 0 0 1-.776 3.918 8.92 8.92 0 0 1-2.39 3.182l-.593-.867a7.85 7.85 0 0 0 2.087-2.815 7.94 7.94 0 0 0 .662-3.454c.057-1.008-.124-2.014-.529-2.937a6.34 6.34 0 0 0-1.8-2.366c-1.718-1.242-4.425-1.221-7.28-1.21-3.433.016-6.994.041-9.746-2.001-5.389-3.846-5.19-16.204-5.176-16.73l1.039.027c-.001.119-.219 12.338 4.741 15.844 2.518 1.803 5.893 1.786 9.169 1.769s5.885.04 7.897 1.403c.253.227.487.474.701.739h0z" class="C"/><path d="M146.615 46.328l-.36.99c-1.013-.326-2.089-.401-3.137-.22-1.873.621-3.666 1.465-5.343 2.513l-.533-.906a25.54 25.54 0 0 1 5.647-2.6 7.37 7.37 0 0 1 3.726.224h0z" class="C"/><path d="M147.137 47.522a16.94 16.94 0 0 1-1.005 3.564c-.607 1.374-4.401 3.918-4.824 4.202l-.573-.887c1.672-1.008 3.177-2.276 4.458-3.758.419-1.068.728-2.176.925-3.307l1.019.185z" class="C"/><path d="M146.407 46.535l.229 1.033c-1.551.304-3.071.752-4.541 1.338l-4.785 2.804-.534-.906 4.796-2.814c1.562-.639 3.181-1.126 4.835-1.455h0z" class="C"/><path d="M147.029 47.61a34.21 34.21 0 0 1-4.108 4.098c-.925.529-3.43 2.476-3.489 2.535l-.642-.838c.089-.089 2.623-2.045 3.608-2.614a31.58 31.58 0 0 0 3.86-3.852l.771.67z" class="C"/><path d="M142.631 26.662l-30.868-25.01-40.408 3.14 33.232 20.641 38.044 1.229z" stroke="#242e39" class="D"/><path d="M104.437 25.928L69.795 4.412l42.128-3.273 32.178 26.071-39.664-1.282z" class="E F"/><path d="M84.652 22.903c6.135.635 12.221 1.692 18.214 3.163l.009.002.009.003c3.683 1.05 8.58 3.217 12.536 5.109l4.995 2.477 1.483.77.035.019 4.189-11.238-.143-.113-1.194-.918c-1.028-.772-2.491-1.831-4.232-2.975-3.488-2.293-8.058-4.909-12.449-6.266-4.379-1.353-9.822-1.595-14.2-1.492a81.9 81.9 0 0 0-5.45.313l-1.596.164-.212.025-1.994 10.955z" stroke="#242e39" class="D"/><path d="M83.902 96.408l-49.637 11.954 15.558 64.606 49.637-11.953-15.558-64.607z" fill="#162c36"/><path d="M78.782 116.924s7.403-4.14 9.844-4.306c.535-.08 1.081-.047 1.602.099s1.006.399 1.422.745.754.776.992 1.262.371 1.017.389 1.558a9.1 9.1 0 0 1-.61 3.4s2.622.773 3.675 7.79c.37 2.469 1.518 4.365-.157 6.224a15.83 15.83 0 0 1-10.132 4.88c-4.04.506-8.038 1.31-11.959 2.407a186.92 186.92 0 0 1-18.854 16.193c-3.738 2.802-7.085 3.131-14.356 1.592-5.976-3.272-7.854-7.834-4.98-14.798s26.443-11.231 27.811-11.743a17.31 17.31 0 0 0 3.578-2.346s.15-5.94 1.572-8.614 5.86-6.615 5.956-10.393-.136-5.423 2.012-4.822 3.366 7.383 2.196 10.872z" class="H"/><path d="M60.879 162.341c-4.177 1.807-16.412 3.573-21.697 2.782s-11.937-2.569-13.721-6.693-1.638-7.309.054-11.503 21.624-10.051 25.801-11.858c2.946 10.418 5.988 18.714 9.563 27.272z" class="D"/><path d="M143.621 156.21c1.272 7.55 5.191 23.007 10.689 24.432" stroke="#001f42" stroke-width=".5" stroke-linejoin="round"/><path d="M101.485 51.253c-.29.524-.687.981-1.164 1.343s-1.025.62-1.608.758c-.507.138-1.032.194-1.557.165a1.1 1.1 0 0 1-.291 0h-.278c-.069-.008-.134-.038-.184-.086s-.084-.111-.094-.18h0v-.215-.114c-.089-.975-.089-2.532-.089-2.532-.342.203-2.114 1.139-2.114.62-.151-4.385.141-8.775.873-13.101.008-.025.024-.047.046-.063s.048-.024.074-.024.053.008.074.024.038.038.046.063c.165 4.089-.392 8.165-.291 12.266a7.86 7.86 0 0 1 2.013-.747c.139 0-.063 2.886 0 3.329.798.038 1.596-.085 2.346-.361s1.437-.7 2.021-1.246c.139-.076.24 0 .177.101z" class="B"/></g><g fill="#a5664b"><path d="M147.201 34.339c.673.739 1.196 1.605 1.538 2.549s.497 1.946.456 2.95c.038 1.349-.228 2.688-.776 3.918a8.92 8.92 0 0 1-2.39 3.182l-.593-.867a7.85 7.85 0 0 0 2.087-2.815 7.94 7.94 0 0 0 .662-3.454c.057-1.008-.124-2.014-.529-2.937a6.33 6.33 0 0 0-1.8-2.366c-1.718-1.242-4.425-1.221-7.28-1.211-3.433.016-6.994.041-9.746-2.001-5.389-3.846-5.19-16.204-5.176-16.73l1.039.027c-.001.119-.219 12.338 4.741 15.844 2.519 1.803 5.893 1.786 9.169 1.769s5.885.04 7.897 1.403a6.32 6.32 0 0 1 .701.739h0z"/><path d="M145.919 45.649l-.36.989c-1.013-.326-2.089-.401-3.137-.22a24.84 24.84 0 0 0-5.343 2.513l-.533-.906c1.771-1.094 3.668-1.967 5.647-2.6a7.37 7.37 0 0 1 3.726.224h0z"/><path d="M146.475 46.43c-.203 1.222-.575 2.831-1.039 3.977-.607 1.375-4.401 3.918-4.824 4.202l-.573-.887a18.56 18.56 0 0 0 4.458-3.759c.419-1.068.728-2.175.925-3.307l1.053-.228z"/><path d="M145.711 45.856l.229 1.033a25.55 25.55 0 0 0-4.541 1.338l-4.785 2.804-.534-.906 4.796-2.814c1.562-.639 3.181-1.126 4.835-1.455h0z"/><path d="M146.333 46.931a34.22 34.22 0 0 1-4.108 4.098c-.925.529-3.43 2.476-3.489 2.535l-.642-.838c.089-.089 2.623-2.045 3.608-2.614a31.65 31.65 0 0 0 3.861-3.852l.77.67z"/></g><path d="M103.404 25.172L68.467 3.473 110.953.172l32.452 26.293-40.001-1.293z" class="C"/><path opacity=".3" d="M103.404 25.172L68.467 3.473 110.953.172l32.452 26.293-40.001-1.293z" class="F"/><path d="M82.856 22.568l2.175-11.949s13.227-1.809 22.22.97 18.622 10.675 18.622 10.675l-4.553 12.213s-12.282-6.584-19.621-8.676a135.06 135.06 0 0 0-18.843-3.233h0z" class="C"/><path d="M45.01 137.313l-5.378 1.173-1.364.429c-2.25.738-4.27 1.809-6.428 2.682-.01.004-.019.011-.026.02s-.012.019-.014.031-.002.024 0 .037.007.026.014.038a.14.14 0 0 0 .027.033c.011.01.022.018.035.023s.025.009.038.01.024-.002.035-.006c2.118-.851 4.417-1.401 6.612-2.09l6.526-2.218c.069-.023.004-.183-.077-.162zm105.042 21.499c-1.895.601-4.78 3.056-4.766 3.05 1.543-.796 3.154-1.935 4.917-2.47 1.289-.391 3.322-.583 5.645-.88-1.255-.112-3.455-.441-5.796.3z" class="G"/><g fill="#becad7"><path d="M106.841 96.241l-4.248-7.518-5.49 5.987 1.338 5.959 5.421.704 2.979-5.132z"/><path d="M102.862 100.373l2.593 60.889-11.408 20.139-5.932-22.664 9.325-59.067 5.421.703z"/></g></svg>