<svg xmlns="http://www.w3.org/2000/svg" xmlns:xlink="http://www.w3.org/1999/xlink" width="268" height="225" fill="none" xmlns:v="https://vecta.io/nano"><ellipse cx="109.784" cy="110.484" rx="109.784" ry="110.484" fill="#7eb7fb"/><path opacity=".6" d="M82.707 56.673c0 12.073-9.787 21.86-21.86 21.86a22.12 22.12 0 0 1-1.748-.069 7.85 7.85 0 0 0 .039-.78 7.76 7.76 0 0 0-7.759-7.759c-2.252 0-4.28.959-5.697 2.492-4.127-3.976-6.695-9.56-6.695-15.744 0-12.073 9.787-21.86 21.86-21.86s21.86 9.787 21.86 21.86zM45.049 73.196c-4.352-4.162-7.062-10.026-7.062-16.523 0-12.625 10.235-22.86 22.86-22.86s22.86 10.235 22.86 22.86-10.235 22.86-22.86 22.86a23.16 23.16 0 0 1-1.912-.079c-.801 3.432-3.88 5.989-7.556 5.989a7.76 7.76 0 0 1-7.759-7.759 7.73 7.73 0 0 1 1.429-4.489zm153.266 41.929c-3.362 16.536-19.493 27.215-36.029 23.853s-27.216-19.493-23.854-36.029 19.493-27.215 36.029-23.853c6.749 1.372 12.523 4.871 16.764 9.657-4.207.725-7.741 3.954-8.643 8.39a10.67 10.67 0 0 0 8.328 12.579c2.886.586 5.736-.052 8.012-1.558.063 2.289-.131 4.621-.607 6.961zm-5.885-26.51a10.7 10.7 0 0 1 2.731.199 10.67 10.67 0 0 1 8.328 12.579c-.5 2.459-1.809 4.548-3.594 6.045.129 2.586-.06 5.23-.6 7.885-3.472 17.077-20.131 28.106-37.208 24.634s-28.107-20.131-24.634-37.208 20.13-28.106 37.208-24.634a31.42 31.42 0 0 1 17.769 10.5zm-148.524 90.17c-4.425-8.904-.794-19.71 8.111-24.135 5.273-2.62 11.212-2.415 16.098.036-1.5 1.454-1.961 3.764-.982 5.735a4.93 4.93 0 0 0 6.61 2.221c.649-.322 1.196-.768 1.626-1.295a18.23 18.23 0 0 1 .783 1.414c4.425 8.904.794 19.71-8.111 24.135s-19.71.793-24.135-8.111zm32.06-18.366c.391.604.753 1.237 1.081 1.897 4.671 9.399.838 20.805-8.561 25.475s-20.805.838-25.475-8.561-.838-20.805 8.561-25.475c5.719-2.842 12.181-2.536 17.417.257a4.99 4.99 0 0 1 .366-.201 4.93 4.93 0 0 1 6.61 2.221c.714 1.436.662 3.053.002 4.387z" fill-rule="evenodd" fill="#fff"/><circle opacity=".6" cx="132.732" cy="42.471" r="22.949" fill="#fff"/><circle opacity=".6" cx="139.663" cy="171.59" r="6.931" fill="#fff"/><circle opacity=".6" cx="29.447" cy="114.964" r="14.901" fill="#fff"/><path d="M199.022 170.209s-.418 5.992-2.139 7.275-9.399.006-9.399.006-5.135-7.27-3.012-10.258 5.99-2.147 8.556-1.288c2.232 1.059 4.261 2.503 5.994 4.265z" fill="#d5a990"/><path d="M126.966 135.134l45.687 23.477 16.674 2.133s20.527 10.247 20.528 11.95-2.123 2.586-3.827 2.147-14.111-5.542-16.676-5.541-4.709.846-4.267 2.989 6.42 11.117 2.993 11.119-6.839-8.551-8.562-9.412c-2.743-2.208-5.305-4.633-7.661-7.25 0 0-34.283-9.504-43.261-10.781-5.035-.597-9.315-5.589-13.531-10.489l11.903-10.342z" fill="#ffcbae"/><mask id="A" mask-type="alpha" maskUnits="userSpaceOnUse" x="0" y="0" width="220" height="222"><path d="M219.602 110.556c0 61.054-49.152 110.549-109.784 110.549S.034 171.61.034 110.556 49.186.006 109.818.006s109.784 49.495 109.784 110.55z" fill="#f2eaff"/></mask><g mask="url(#A)"><path d="M136.205 231.281c-1.456-.947-3.136-1.494-4.87-1.585l-28.003-5.031c-8.801-1.57-17.602-2.934-26.213-4.782-7.202-1.467-14.522-3.447-20.712-7.437-6.074-3.938-10.526-9.931-12.542-16.884-1.898-6.967-2.372-14.246-1.394-21.401.191-1.746.528-3.477.865-5.193 0-.027-.011-.053-.03-.072a.1.1 0 0 0-.073-.03c-.027 0-.053.01-.073.03s-.03.045-.03.072c-2.523 13.202-2.934 28.677 6.909 39.4 4.782 5.208 11.412 8.332 18.189 10.371 7.722 2.077 15.559 3.703 23.47 4.87l28.017 5.017c4.489.806 9.051 1.466 13.51 2.435a4.56 4.56 0 0 1 2.42 1.114 3.49 3.49 0 0 1 .58 1.577 3.48 3.48 0 0 1-.228 1.665c-.469 2.2-1.085 4.401-1.745 6.528-5.325 17.397-43.302 99.966-44.344 101.873-.103.206.205.352.323.161 8.801-15.196 37.038-78.931 42.906-95.345a105.75 105.75 0 0 0 3.828-12.792c.382-1.598.587-3.373-.762-4.561z" fill="#37474f"/><path d="M222.837 389.687H159.22s1.056-119.08-3.976-125.681c-6.703-8.801-102.064-9.725-122.174-38.387-18.072-25.758-2.127-61.697-2.127-61.697l72.228-1.276c-1.717 7.723-4.047 15.296-6.968 22.649 0 0 86.794 17.089 110.851 44.005 16.238 18.219 15.783 160.387 15.783 160.387z" fill="#263238"/><path d="M108.965 180.454c-2.077.451-4.11 1.09-6.073 1.907l-6.131 2.596c-3.945 1.899-7.784 4.009-11.5 6.322-.117.073 0 .235.103.176 3.931-1.98 7.994-3.755 12.058-5.457l5.867-2.435c1.966-.821 4.049-1.466 5.868-2.537.234-.132.102-.631-.191-.572zm-4.107-17.881c-.866 3.286-1.643 6.601-2.611 9.857-.455 1.467-.895 2.934-1.467 4.401-.499 1.217-1.232 2.611-2.655 2.933-1.643.294-2.098-1.114-1.951-2.464s.572-3.022.895-4.503l1.056-5.119.499-2.582a23.34 23.34 0 0 1 .337-2.318h.088a.1.1 0 0 0 .068-.025c.019-.016.031-.038.035-.063.023-.037.036-.08.036-.124a.23.23 0 0 0-.036-.125c-.025-.014-.052-.022-.081-.022s-.056.008-.081.022c-.308.161-.337.587-.44.909l-.807 2.494a133.04 133.04 0 0 0-1.364 4.723l-1.232 4.753c-.427 1.167-.553 2.423-.367 3.652.139.587.464 1.113.927 1.499s1.038.612 1.64.643a3.47 3.47 0 0 0-.176.323c-.147.322-.264.674-.381.997s-.249.675-.352 1.027c-.057.166-.091.338-.103.513v.572a.28.28 0 0 0 .043.179c.034.053.085.093.144.113a.28.28 0 0 0 .183-.001c.059-.021.11-.061.143-.115.088-.161.205-.293.308-.454.098-.174.181-.356.249-.543l.293-.997c.088-.337.191-.661.264-.998s0-.411 0-.616a3.87 3.87 0 0 0 1.907-.689 6.44 6.44 0 0 0 1.994-2.934c.514-1.364.925-2.787 1.321-4.181 1.057-3.462 1.803-7.011 2.229-10.605-.009-.061-.036-.118-.077-.164s-.096-.077-.157-.092a.3.3 0 0 0-.18.012.31.31 0 0 0-.143.112h0zm-43.038 7.554l-.924 4.899-1.379 4.709a17.39 17.39 0 0 1-2.068 4.225 15.67 15.67 0 0 1-3.242 3.212c-2.347 1.826-4.979 3.253-7.789 4.225a36.18 36.18 0 0 1-4.312 1.202l-2.303.382a5.04 5.04 0 0 0-1.863.396.38.38 0 0 0-.131.138c-.031.057-.047.12-.047.185a.38.38 0 0 0 .178.322c1.106.35 2.285.401 3.418.147a23.56 23.56 0 0 0 3.667-.587 26.37 26.37 0 0 0 6.953-2.846 21.6 21.6 0 0 0 5.868-4.649 16.48 16.48 0 0 0 3.168-6.733 33.07 33.07 0 0 0 1.115-9.198.16.16 0 0 0-.05-.088c-.026-.023-.058-.038-.093-.041s-.069.004-.099.022-.053.046-.066.078h0zm106.582 136.609a757.05 757.05 0 0 0-2.185-30.804l-.734-7.569a24.18 24.18 0 0 0-1.202-5.765c-1.467-3.858-4.636-5.867-8.479-6.85-4.547-1.217-9.256-1.966-13.891-2.772l-14.243-2.289-28.853-4.547a228.21 228.21 0 0 1-28.281-6.718c-8.493-2.684-17.206-5.97-23.969-11.97-14.537-12.908-14.815-34.266-12.806-52.103.279-2.523.616-5.031.953-7.554 0-.132-.191-.176-.205 0-1.276 10.048-2.758 20.155-1.878 30.291.54 8.389 3.211 16.502 7.76 23.572 4.885 7.202 12.204 11.911 20.111 15.212 8.731 3.496 17.752 6.215 26.961 8.126 19.069 4.21 38.432 6.131 57.574 9.652a228.21 228.21 0 0 1 7.056 1.379 28.96 28.96 0 0 1 6.381 1.775c4.4 2.009 5.471 6.263 5.955 10.649 1.13 10.195 1.863 20.433 2.479 30.672 1.232 20.61 1.775 41.336 1.467 61.99l-.132 7.657c0 .22.338.205.338 0 .909-20.654.88-41.366-.177-62.034z" fill="#37474f"/><path d="M193.559 218.519c-7.259-4.59-14.894-8.555-22.824-11.852-7.892-3.404-15.975-6.323-24.116-9.066s-16.414-4.972-24.658-7.173-16.692-3.989-25.098-5.647l12.425 3.315 12.38 3.403c8.229 2.347 16.458 4.738 24.555 7.481s16.136 5.545 24.145 8.699c3.975 1.584 7.906 3.256 11.735 5.06s7.715 3.682 11.456 5.78z" fill="#37474f"/><path d="M172.702 154.04l-2.414 15.661s-20.345-.359-48.862-14.618c-5.691-7.466-28.406-39.303-31.486-59.384s6.953-16.018 15.505-5.75 22.568 38.392 28.048 43.589 39.209 20.503 39.209 20.503z" fill="#2d7edf"/><path d="M113.38 188.328c-2.024 2.175-88.994 12.115-89.478 11.471-1.144-1.724 12.301-87.109 47.066-117.991 6.131-5.445 19.178-7.473 23.813-4.139 2.318 1.611 8.801 14.499 10.561 25.953s9.285 83.337 8.038 84.706z" fill="#0b2442"/><path d="M92.624 93.572c-5.134.279-12.234-8.728-14.493-15.402-.147-.455 4.562-16.825 5.149-20.169.117-.689 20.082 8.801 20.082 8.801a53.97 53.97 0 0 0-4.313 12.468c-.015.513-1.423 14.023-6.425 14.302z" fill="#ffcbae"/><path d="M103.435 66.816c0 .103-.249.484-.528 1.115l-1.98 4.841c-.785 2.111-1.388 4.285-1.805 6.498v.469c0 .279-.088.645-.147 1.085a16.45 16.45 0 0 1-2.068-.249c-11.368-2.303-12.718-17.001-12.82-22.56l.352.132c.543.176 1.232.455 2.083.807l.645.279 4.591 2.024 1.643.748 3.491 1.614a14.77 14.77 0 0 0 1.467.645l1.467.66c.214.115.434.218.66.308l.293.147 1.658.792.792.367.337.161-.132.117z" fill="#96654a"/><path d="M86.141 32.741c-4.063 6.762-5.471 28.882-1.467 34.911 5.867 8.713 18.072 12.454 26.154 4.826 7.833-7.334 9.153-36.246 4.401-41.996-6.968-8.464-23.074-7.745-29.088 2.259z" fill="#ffcbae"/><path d="M103.758 50.343s-.132 0-.132.117c0 1.467-.279 3.212-1.643 3.652v.088c1.672-.235 1.995-2.508 1.775-3.858z" fill="#263238"/><path d="M102.482 48.671c-2.391-.279-2.773 4.532-.558 4.782s2.567-4.577.558-4.782zm9.871 2.538s.118 0 .103.132c-.161 1.467-.103 3.212 1.203 3.814v.088c-1.643-.367-1.702-2.655-1.306-4.034z" fill="#263238"/><path d="M113.806 49.757c2.405 0 2.215 4.826 0 4.811s-2.025-4.826 0-4.811zm-12.381-3.242a17.64 17.64 0 0 0 1.966.235 3.17 3.17 0 0 0 2.054-.147 1 1 0 0 0 .396-1.174 2.52 2.52 0 0 0-2.171-1.364c-.907-.17-1.845.008-2.626.499a1.08 1.08 0 0 0-.446 1.1 1.08 1.08 0 0 0 .287.549 1.09 1.09 0 0 0 .54.302h0zm14.669.293c-.638-.178-1.265-.393-1.878-.646-.694-.133-1.324-.494-1.789-1.027-.112-.195-.156-.421-.127-.643a1.03 1.03 0 0 1 .288-.589 2.55 2.55 0 0 1 2.552-.279 3.73 3.73 0 0 1 2.142 1.599 1.08 1.08 0 0 1 .149.605 1.06 1.06 0 0 1-.213.585 1.07 1.07 0 0 1-1.124.394zM101.279 64c.337.367.645.88 1.188.968a3.88 3.88 0 0 0 1.628-.249s.103 0 0 .088a2.02 2.02 0 0 1-1.951.645 1.58 1.58 0 0 1-.766-.565c-.192-.262-.298-.577-.305-.902.044-.029.162-.044.206.015zM84.615 48.378c5.031.778 7.422-8.2 7.422-8.2s8.802 0 11.105-6.366c0 0 7.334 6.513 14.17 5.178s7.158-9.476 6.659-11.134c-1.115-3.814-7.173-.088-7.173-.088-4.808-3.784-10.602-6.106-16.693-6.689-7.613-.425-12.468 6.044-12.468 6.044s-4.151.22-5.867 2.846-.352 17.925 2.846 18.409z" fill="#263238"/><path d="M89.999 39.928c6.528 1.922 11.646-1.819 13.612-8.053h.117c-1.114 5.867-7.715 11.735-13.847 8.317a.17.17 0 0 1-.036-.081c-.005-.03 0-.06.012-.088s.032-.051.057-.068.054-.027.084-.028zm-2.157-12.893s.103.117 0 .132c-1.995.572-4.239.895-5.868 2.391-1.907 1.804-1.995 4.547-1.76 6.982.352 3.755 1.467 8.801 4.401 11.383.176.147-.073.396-.235.249-3.52-2.934-4.826-9.344-4.709-13.686.205-4.87 3.594-7.114 8.171-7.452zm22.385 9.652a9.27 9.27 0 0 0 10.268 1.335c3.946-2.142 3.916-6.659 2.933-10.547 0-.191.235-.352.308-.161 1.555 3.535.939 8.464-2.391 10.811a9.68 9.68 0 0 1-11.47-1.041c-.279-.22.073-.616.352-.396z" fill="#263238"/><path d="M99.357 58.822c-1.27-.262-2.44-.876-3.378-1.77a6.92 6.92 0 0 1 .289-10.28c.987-.84 2.19-1.387 3.472-1.578s2.592-.017 3.781.5a6.93 6.93 0 0 1 4.153 6.044h0c.084 1.834-.565 3.627-1.802 4.983s-2.964 2.165-4.799 2.249c-.576.025-1.152-.024-1.716-.147h0zm2.626-12.644c-.483-.097-.975-.136-1.467-.117a5.98 5.98 0 0 0-4.025 1.801 5.99 5.99 0 0 0-1.699 4.069 5.98 5.98 0 0 0 1.55 4.128c1.024 1.128 2.438 1.825 3.957 1.946s3.026-.341 4.216-1.293a5.99 5.99 0 0 0 2.186-3.829c.215-1.508-.154-3.042-1.031-4.288a5.98 5.98 0 0 0-3.687-2.418h0zm13.201 13.949c-2.581-.528-4.4-3.682-4.077-7.334.127-1.721.783-3.36 1.877-4.694.452-.574 1.04-1.026 1.711-1.315a4.4 4.4 0 0 1 5.623 1.961c.85 1.506 1.209 3.239 1.027 4.958-.337 3.799-2.934 6.689-5.735 6.44l-.426-.015zm1.937-12.718h-.352a3.67 3.67 0 0 0-3.081 1.467 7.33 7.33 0 0 0-1.657 4.166c-.279 3.286 1.364 6.132 3.696 6.337s4.401-2.318 4.723-5.603a7.33 7.33 0 0 0-.894-4.401 3.88 3.88 0 0 0-2.435-1.966h0z" fill="#e1edfb"/><path d="M107.381 52.514l-.528-.748c1.115-.792 3.638-1.76 5.163.191l-.733.572c-1.364-1.76-3.799-.088-3.902-.015zm-30.892-.909l-.777-.499c.235-.367 2.318-3.565 4.4-3.726s14.199 2.112 14.669 2.2l-.176.91c-3.506-.645-12.982-2.288-14.478-2.186s-3.066 2.42-3.638 3.3z" fill="#e1edfb"/><path d="M86.581 51.135s-3.256-7.98-6.762-6.982-2.171 11.735 1.188 13.994a3.83 3.83 0 0 0 2.913.73 3.83 3.83 0 0 0 2.544-1.596l.117-6.146z" fill="#ffcbae"/><path d="M80.273 47.248s-.088 0 0 .088c2.332 1.628 3.139 4.313 3.52 6.997-.092-.289-.245-.554-.448-.779a2.11 2.11 0 0 0-1.613-.694 2.11 2.11 0 0 0-.873.211v.161c.482-.041.965.069 1.382.313s.749.611.95 1.051a11.87 11.87 0 0 1 .748 2.318c0 .264.513.235.484 0 .865-3.374-.704-8.537-4.151-9.667z" fill="#263238"/><path d="M98.932 81.148l-7.026 11.735-12.996-18.336-5.222 4.401s11.148 27.592 11.427 26.477l6.894-9.96 6.234 8.699 2.435-18.923-1.745-4.093z" fill="#2d7edf"/><path d="M99.959 94.745l.836-9.446c0-.103-.162-.191-.206 0-1.114 2.934-2.171 14.904-2.655 17.749-.264-.381-5.867-7.715-5.867-7.627-1.467 1.54-6.439 8.801-6.806 9.446-1.76-4.4-8.654-20.374-10.884-24.614 0-.117-.249 0-.205 0 1.467 4.562 10.488 26.081 10.694 26.052a123.17 123.17 0 0 0 7.217-10.532c.895 1.555 6.41 9.696 6.513 9.241.63-3.397 1.086-6.824 1.364-10.268h0z" fill="#062244"/><path fill="#8096b0" d="M11.858 186.996h196.639v51.352H11.858z"/></g><g fill="#62778f"><use xlink:href="#C"/><use xlink:href="#D"/><use xlink:href="#D" x="6.117" y="-0.2"/><use xlink:href="#C" x="18.365" y="-0.613"/><use xlink:href="#C" x="24.482" y="-0.813"/><path d="M141.771 181.128h-2.717a1 1 0 0 0-1 1v1.078a1 1 0 0 0 1 1h2.717a1 1 0 0 0 1-1v-1.078a1 1 0 0 0-1-1z"/><use xlink:href="#D" x="30.599" y="-1.013"/><use xlink:href="#C" x="42.847" y="-1.426"/><use xlink:href="#D" x="42.834" y="-1.426"/></g><path d="M162.299 185.996a1 1 0 0 1-1 1h-53.995a1 1 0 0 1-1-1v-1.768a1 1 0 0 1 .972-1l53.995-1.508a1 1 0 0 1 1.028 1v3.276zm86.093-21.831a4 4 0 0 1-3.912 3.165h-93.012a4 4 0 0 1-3.912-4.835l14.38-67.348a4 4 0 0 1 3.911-3.165h93.013c2.545 0 4.443 2.346 3.912 4.835l-14.38 67.347z" fill="#becad7"/><path d="M252.302 163.374a5 5 0 0 1-4.89 3.956h-90.968c-3.181 0-5.554-2.933-4.889-6.044l13.952-65.348a5 5 0 0 1 4.89-3.956h90.968a5 5 0 0 1 4.889 6.044l-13.952 65.348z" fill="#8096b0"/><path d="M217.643 125.296c-.312 1.716-1.202 3.273-2.522 4.411a7.62 7.62 0 0 1-4.734 1.844 5.2 5.2 0 0 1-2.284-.451c-.718-.322-1.353-.801-1.859-1.403a5.22 5.22 0 0 1-1.061-2.073c-.192-.762-.209-1.558-.05-2.328.308-1.714 1.196-3.27 2.514-4.409s2.988-1.79 4.729-1.846c.786-.023 1.567.132 2.285.453s1.354.8 1.86 1.402.871 1.31 1.065 2.072.214 1.558.057 2.328z" fill="#064ea4"/><g fill="#e7eaee"><path d="M222.834 185.995a1 1 0 0 1-1 1H174.07a1 1 0 0 1-1-1v-1.897a1 1 0 0 1 .968-.999l47.764-1.537a1 1 0 0 1 1.032.999v3.434z"/><path d="M234.82 182.927c.748 1.964-.702 4.068-2.803 4.068h-20.301a3 3 0 0 1-2.803-1.931l-13.802-36.221c-.748-1.964.702-4.069 2.804-4.069h20.3a3 3 0 0 1 2.803 1.932l13.802 36.221z"/></g><path d="M239.739 184.283a2 2 0 0 1-1.869 2.712h-22.44a2 2 0 0 1-1.869-1.287l-14.575-38.221c-.499-1.309.468-2.713 1.869-2.713h22.44a2 2 0 0 1 1.869 1.288l14.575 38.221z" fill="#becad7"/><path d="M91.758 162.619a34.86 34.86 0 0 0 5.754-2.555c2.208-1.721 4.791-2.894 7.541-3.423 4.663-1.134 5.869-.874 5.869-.874l5.825-1.93c3.264-1.206 3.519 1.74 1.693 2.932s-10.436 3.699-10.436 3.699 8.818.466 10.066.298 7.775-3.583 8.468-4.059 3.039-1.05 3.836.111-2.623 7.172-2.623 7.172-.506 7.835-3.73 10.023-14.899 4.679-16.98 4.058-15.621-2.974-15.621-2.974l.339-12.478z" fill="#ffcbae"/><path d="M94.299 158.551l2.45 19.265s-85.283 12.586-91.033-5.178 36.672-68.605 52.44-82.276 19.993-6.454 14.874 7.452-27.022 58.71-26.655 58.71 47.925 2.028 47.925 2.028z" fill="#2d7edf"/><g fill="#062244"><path d="M59.433 133.261l-2.697 3.208-.499.676 1.012-2.276 2.361-5.94c.012-.038.009-.078-.008-.114s-.046-.063-.082-.078-.077-.016-.113-.002a.16.16 0 0 0-.085.075l-2.527 5.014-2.307 4.808-4.935 9.899c-2.574 5.543-4.204 8.597-3.459 8.88 3.537-6.366 5.574-10.396 8.646-16.995l.756-1.646.283-.333 1.291-1.674c.843-1.126 1.605-2.32 2.398-3.498l-.033-.004zm49.742-15.935l-.65 3.398-.079.674-.284-1.861-.97-4.684c-.008-.027-.031-.048-.062-.057s-.069-.006-.106.008-.071.038-.095.068a.14.14 0 0 0-.033.093l.378 4.28.458 4.034.79 8.417c.6 4.598.755 7.26 1.509 6.959-.209-5.635-.508-9.078-1.215-14.556l-.184-1.361.069-.354a42.99 42.99 0 0 0 .242-1.702c.143-1.13.185-2.246.261-3.374l-.029.018z"/><path d="M62.676 156.593c-10.223-.34-20.481-.053-30.728.857l-.844.172c-3.327-.314-5.613-.007-5.609-.027 1.484-.006 2.967.094 4.44.192a71.6 71.6 0 0 0-2.643.434c-2.378.425-4.68 1.039-4.672 1.004 2.597-.467 5.233-.76 7.843-1.082 1.089-.135 12.214-.742 24.998-.729 17.844.019 37.97 1.194 38.785 1.174-.375-.406-10.697-1.302-31.569-1.995z"/></g><defs ><path id="C" d="M111.171 182.142h-2.716a1 1 0 0 0-1 1v1.077a1 1 0 0 0 1 1h2.716a1 1 0 0 0 1-1v-1.077a1 1 0 0 0-1-1z"/><path id="D" d="M117.301 181.941h-2.716a1 1 0 0 0-1 1v1.078a1 1 0 0 0 1 1h2.716a1 1 0 0 0 1-1v-1.078a1 1 0 0 0-1-1z"/></defs></svg>