<svg xmlns="http://www.w3.org/2000/svg" xmlns:xlink="http://www.w3.org/1999/xlink" width="233" height="233" fill="none" xmlns:v="https://vecta.io/nano"><path d="M232.068 116.034c0 64.084-51.95 116.034-116.034 116.034S0 180.118 0 116.034 51.95 0 116.034 0s116.034 51.95 116.034 116.034z" fill="#f99d77"/><path opacity=".6" d="M106.579 38.21c0 12.073-9.787 21.86-21.86 21.86-.588 0-1.171-.023-1.748-.069a7.85 7.85 0 0 0 .039-.78 7.76 7.76 0 0 0-7.759-7.759 7.74 7.74 0 0 0-5.697 2.492c-4.127-3.976-6.694-9.56-6.694-15.744 0-12.073 9.787-21.86 21.86-21.86s21.86 9.787 21.86 21.86zM68.921 54.732c-4.352-4.162-7.062-10.026-7.062-16.523 0-12.625 10.235-22.86 22.86-22.86s22.86 10.235 22.86 22.86-10.235 22.86-22.86 22.86c-.644 0-1.281-.027-1.912-.079-.801 3.432-3.88 5.989-7.556 5.989a7.76 7.76 0 0 1-7.759-7.759 7.73 7.73 0 0 1 1.429-4.489zm145.168 68.86c0 16.874-13.679 30.554-30.553 30.554s-30.554-13.68-30.554-30.554 13.679-30.554 30.554-30.554c8.094 0 15.453 3.148 20.92 8.286-2.074 1.946-3.37 4.712-3.37 7.781a10.67 10.67 0 0 0 10.667 10.667c.71 0 1.403-.069 2.074-.201a30.84 30.84 0 0 1 .262 4.021zm.715-4.262c.188 1.393.285 2.816.285 4.262 0 17.426-14.127 31.554-31.553 31.554s-31.554-14.128-31.554-31.554 14.127-31.554 31.554-31.554a31.44 31.44 0 0 1 21.685 8.633 10.62 10.62 0 0 1 6.532-2.234 10.67 10.67 0 0 1 10.668 10.668c0 4.831-3.212 8.912-7.617 10.225zM73.499 104.46c0 9.943-8.061 18.004-18.004 18.004-5.888 0-11.115-2.826-14.4-7.196 1.99-.635 3.431-2.499 3.431-4.699a4.93 4.93 0 0 0-4.931-4.931 4.91 4.91 0 0 0-2.032.437 18.24 18.24 0 0 1-.071-1.615c0-9.943 8.061-18.004 18.004-18.004S73.5 94.517 73.5 104.46zm-36.884 2.18c-.082-.715-.124-1.443-.124-2.18 0-10.495 8.508-19.004 19.004-19.004s19.004 8.508 19.004 19.004-8.508 19.004-19.004 19.004c-6.386 0-12.037-3.15-15.483-7.982a4.81 4.81 0 0 1-.417.018 4.93 4.93 0 0 1-4.931-4.931 4.92 4.92 0 0 1 1.951-3.929z" fill-rule="evenodd" fill="#fff"/><circle opacity=".6" cx="159.376" cy="51.462" r="11.1" fill="#fff"/><circle opacity=".6" cx="194.495" cy="64.978" r="6.931" fill="#fff"/><circle opacity=".6" cx="22.888" cy="72.189" r="6.931" fill="#fff"/><path d="M73.718 199.523c1.469 1.552 94.35 3.678 94.828 3.093 1.266-1.601-10.749-60.552-20.435-83.088-12.385-28.914-19.443-31.482-23.611-33.202-5.327-2.198-15.025-1.684-17.365-.705-2.664 1.087-14.189 14.021-17.652 24.472-6.939 21.008-17.055 88.068-15.765 89.43z" fill="#327cd2"/><path d="M138.825 95.844c40.057 30.096 68.618 72.826 65.298 86.059-3.523 13.985-28.463 16.003-59.605 20.091-5.004.657-8.796-23.641-3.672-25.325 4.001-1.314 32.64-5.007 34.814-7.491 1.505-1.732-37.113-45.307-46.25-66.005-9.65-21.748-1.31-15.439 9.415-7.329z" fill="#ffcbae"/><path d="M102.584 213.627l1.792-2.388a50.24 50.24 0 0 1 3.654-4.586l4.061-4.037 4.55-4.001c.01-.016.023-.03.038-.04s.034-.017.052-.019.038 0 .055.006.034.018.046.031.022.03.028.048.006.037.002.056-.011.035-.023.05-.026.027-.043.035a52.41 52.41 0 0 0-4.084 4.359l-3.87 4.395-3.893 4.18-1.875 2.15a16.18 16.18 0 0 1-1.792 2.043c-.016.006-.033.009-.051.006s-.033-.009-.047-.02-.024-.026-.03-.042-.007-.035-.003-.052c.399-.774.879-1.502 1.433-2.174h0zm-9.853-4.956a79.61 79.61 0 0 1 6.605-8.658 54.71 54.71 0 0 1 8.061-7.357c.108-.072.239.071.156.167-2.389 2.723-4.909 5.398-7.381 8.085l-7.166 8.014c-.155.143-.37-.072-.275-.251zm19.002 9.889c1.937-2.817 4.06-5.502 6.353-8.038a71.29 71.29 0 0 1 8.205-6.449c.108 0 .251.072.156.167-2.568 2.389-5.16 4.682-7.596 7.166-1.195 1.194-5.661 6.33-6.903 7.393-.108.048-.287-.108-.215-.239z" fill="#242e39"/><path d="M184.43 131.22l-30.502 19.778s-22.633-35.041-28.497-51.642.968-16.637 16.983-4.61 42.016 36.474 42.016 36.474z" fill="#327cd2"/><path d="M177.527 126.885c-11.632 9.256-23.121 15.526-25.403 17.138-.107.072-.203-.107-.095-.179 2.317-1.409 14.75-10.558 25.379-17.15.119-.084.203.107.119.191zm-21.641 22.799a15.34 15.34 0 0 0-1.851.955l-10.498-17.604-5.064-8.551c-1.743-2.974-3.344-6.079-5.255-8.945-.004-.009-.011-.016-.018-.023s-.017-.01-.026-.013-.02-.004-.029-.003-.02.004-.028.009-.016.011-.023.019-.01.016-.013.025-.004.02-.003.03.004.019.009.027a91.22 91.22 0 0 0 4.156 8.289c-.31-.406-.609-.836-.943-1.194-.753-.896-1.493-1.792-2.162-2.747-.108-.144-.358 0-.251.143.645.908 1.194 1.851 1.804 2.807s1.194 1.863 1.851 2.782 1.302 1.72 1.982 2.544a3.13 3.13 0 0 0 .239.311l2.807 5.099c3.392 5.888 11.095 17.748 11.202 17.712a15.76 15.76 0 0 0 2.21-1.469c.048-.107.048-.227-.096-.203z" fill="#1e3d60"/><path d="M89.71 93.002c-32.509 16.888-53.006 34.777-68.074 50.515-3.583 8.982.154 26.447 3.773 36.228 1.768 4.777 30.773-10.174 27.034-14.127-9.244-9.769-7.006-16.508-5.991-18.491.633-1.266 48.429-32.938 58.413-46.863 13.926-19.396-.931-14.654-15.155-7.262z" fill="#ffcbae"/><path d="M85.398 206.115c-4.252 2.389-9.244-8.587-9.244-8.587a8.96 8.96 0 0 1-2.508 5.578c-2.699 2.531-7.847-.598-7.847-.598-.621 2.137-1.869 4.039-3.583 5.458-2.831 2.162-8.48-.238-8.48-.238-1.653 1.649-3.845 2.645-6.175 2.806-6.234.191-11.525-7.727-14.953-12.719s-8.432-22.394-9.722-25.606l31.9-22.226s21.713 18.058 24.901 24.507c2.675 5.434 12.194 27.983 5.709 31.625z" fill="#fff"/><path d="M76.226 197.373c-1.409-6.437-4.479-12.552-7.381-18.381-.072-.131-.275 0-.203.096 3.022 5.792 4.562 12.528 7.357 18.416.023.012.049.018.075.018s.052-.008.074-.021.042-.032.055-.054a.16.16 0 0 0 .022-.074h0zm-10.08 4.741a17.47 17.47 0 0 0-1.971-4.06l-2.448-4.133-5.255-8.049c-.084-.12-.275 0-.203.107l4.861 8.253 2.305 4.204a20.47 20.47 0 0 0 2.317 3.881c.033.04.079.068.129.078s.103.003.149-.021.083-.062.103-.109a.23.23 0 0 0 .012-.151h0zm-12.481 5.542a12.12 12.12 0 0 0-1.959-3.583l-2.389-3.691-4.586-7.464c-.018-.019-.042-.031-.067-.035s-.052 0-.075.012a.12.12 0 0 0-.052.055c-.011.023-.014.05-.009.075l4.431 7.716 2.233 3.762a11.14 11.14 0 0 0 2.317 3.224c.096 0 .179-.071.155-.071z" fill="#242e39"/><use xlink:href="#B" fill="#ffc727"/><use xlink:href="#B" fill="#327cd2"/><path d="M71.496 135.556c-10.988-9.34-19.109-19.05-20.996-20.913-.084-.095.072-.227.155-.131 1.768 1.935 12.791 12.051 21.02 20.9.096.108-.072.239-.179.144zm21.056-31.04l-3.404 7.727v-.526a33.83 33.83 0 0 1 .729-4.777c0-.179-.227-.263-.275-.084l-.932 4.778c-.131.776-.203 1.552-.263 2.328.005.096.005.192 0 .287-.007.032-.007.064 0 .096-1.194 3.499-1.887 7.082-2.878 10.617-.005.017-.006.035-.004.053a.13.13 0 0 0 .017.05c.009.016.021.03.035.041s.03.019.047.023.035.006.053.004.035-.008.05-.017a.14.14 0 0 0 .064-.082c.979-3.464 2.389-6.82 3.583-10.2s2.221-6.831 3.392-10.235c.036-.107-.167-.203-.215-.083z" fill="#1e3d60"/><path d="M109.296 102.287c5.231 1.456 14.688-5.437 18.526-12.791.262-.449-.384-5.361-.73-11.246-.204-3.64-.347-7.559-.215-11.199 0-.752-22.692 4.708-22.692 4.708 1.285 5.289.798 10.468.798 15.76 0 5.213-1.774 12.355 4.313 14.768z" fill="#ffcbae"/><path d="M125.491 67.086c-1.266 5.972-5.577 20.542-17.592 20.303-.769.004-2.155-.19-2.912-.329-.008.083-.008-.083 0 0l.023-1.588s.257-9.323-.861-13.86c0 0 16.433-3.81 21.342-4.526z" fill="#daac92"/><path d="M125.718 37.264c3.714 7.476 3.356 30.909-1.397 36.916-6.891 8.706-20.065 11.621-27.947 2.914-7.632-8.456-6.617-38.982-1.123-44.631 8.074-8.324 24.949-6.234 30.467 4.801z" fill="#ffcbae"/><path d="M108.687 55.979c2.532-.167 2.676 4.932.323 5.088s-2.461-4.933-.323-5.088zm-11.716.334c-2.544-.119-2.604 4.98-.251 5.088s2.377-4.98.251-5.088zm13.95-4.419c-.698-.05-1.392-.141-2.078-.275a3.42 3.42 0 0 1-2.067-.693 1.07 1.07 0 0 1-.271-.634c-.017-.236.045-.471.176-.667a2.68 2.68 0 0 1 1.178-.763 2.67 2.67 0 0 1 1.402-.061 3.88 3.88 0 0 1 2.567 1.194 1.19 1.19 0 0 1 .226.595c.02.215-.018.431-.111.626a1.2 1.2 0 0 1-1.022.678zm-16.398.777c.705-.143 1.326-.382 2.006-.585.736-.11 1.415-.458 1.935-.991.132-.199.194-.435.177-.673s-.113-.463-.273-.641a2.65 2.65 0 0 0-2.675-.418c-.965.201-1.819.76-2.389 1.565a1.2 1.2 0 0 0-.138.633c.013.22.087.431.213.612s.299.322.501.41a1.19 1.19 0 0 0 .642.088h0zm15.789 19.55c-.371.37-.741.896-1.302.955-.587.005-1.169-.113-1.708-.346 0 0-.108 0-.072.084a2.14 2.14 0 0 0 2.031.8 1.68 1.68 0 0 0 .813-.536c.213-.255.345-.567.381-.897.024-.096-.096-.12-.143-.06zm-6.545-2.687c.689.85 1.586 1.508 2.603 1.911a2.88 2.88 0 0 0 1.744 0c1.254-.37 1.254-1.529.991-2.508a7.17 7.17 0 0 0-.609-1.505 8.23 8.23 0 0 1-4.729 2.102h0z" fill="#242e39"/><path d="M106.37 71.505a2.88 2.88 0 0 0 1.744 0c1.254-.37 1.254-1.529.991-2.508-.673.046-1.31.319-1.807.775s-.824 1.067-.928 1.733h0z" fill="#ff98b9"/><g fill="#242e39"><path opacity=".2" d="M128.214 53.889c-1.528-.287-5.064-5.577-6.58-7.679S119.52 33 119.436 30.492a16.62 16.62 0 0 1 6.282 6.772c1.648 3.344 2.496 9.877 2.496 16.625z"/><path d="M100.148 39.127a7.95 7.95 0 0 0 7.261 2.651 8.09 8.09 0 0 0 6.199-4.909c0-.072.143 0 .119 0a8 8 0 0 1-2.345 3.593c-1.095.962-2.431 1.607-3.865 1.865a8.17 8.17 0 0 1-7.524-3.153c-.096-.024.071-.143.155-.048zm8.109-19.634c4.598.084 8.826 2.604 10.534 5.721a8.92 8.92 0 0 1 .896 5.792c0 .084-.179.072-.167 0 .083-1.75-.306-3.49-1.125-5.038a9.79 9.79 0 0 0-3.533-3.764 12.57 12.57 0 0 0-5.427-1.953 12.58 12.58 0 0 0-5.728.675 8.05 8.05 0 0 0-4.264 3.464c-.084.167-.43 0-.358-.119 1.218-2.926 4.992-4.837 9.172-4.777zM81.6 29.62a10.09 10.09 0 0 1 4.287-5.482c2.807-1.756 5.972-1.517 9.16-1.194.096 0 .084.143 0 .131-2.699-.251-5.446-.346-7.918.944a9.89 9.89 0 0 0-4.586 4.873A9.71 9.71 0 0 0 86.64 40.93a9.85 9.85 0 0 0 3.816 1.182c1.34.129 2.691-.017 3.971-.43.096 0 .167.108.072.155A9.91 9.91 0 0 1 81.6 29.644v-.024z"/><path d="M127.271 41.826s4.275-8.265.585-12.994c-2.102-2.675-8.957-2.245-8.957-2.245-1.861-2.71-4.722-4.57-7.955-5.171-5.756-1.194-12.552 2.174-12.552 2.174s-5.482-3.069-10.558-.096c-7.082 4.144-6.079 14.989 1.123 18.404 5.064 2.389 11.86-2.138 11.86-2.138.657.084 7.428 4.073 12.456-1.983 0 0 4.168 3.583 7.859 1.015a5.97 5.97 0 0 0 2.591 2.484c1.098.543 2.337.734 3.548.549h0z"/></g><path d="M123.95 56.612s4.073-8.133 7.692-6.784 1.302 12.612-2.389 14.654c-.458.295-.972.494-1.509.586s-1.088.073-1.618-.055-1.029-.361-1.467-.686a4.05 4.05 0 0 1-1.079-1.207l.37-6.509z" fill="#ffcbae"/><path d="M130.949 53.041c.06 0 .084.072 0 .108-2.592 1.517-3.666 4.288-4.299 7.082a2.23 2.23 0 0 1 .537-.79c.235-.221.514-.389.819-.493s.629-.139.95-.105a2.23 2.23 0 0 1 .906.301c.084 0 0 .167 0 .155a2.48 2.48 0 0 0-2.579 1.194 11.72 11.72 0 0 0-.98 2.389c-.095.275-.561.203-.501-.096-.633-3.523 1.373-8.838 5.147-9.746z" fill="#242e39"/><path d="M130.412 90.709c-2.455 3.055-5.078 5.969-7.859 8.73-2.687 2.508-5.971 4.778-9.554 5.136s-7.166-.334-8.492-4.682c-1.075-3.452-.931-7.011-.358-11.453a.13.13 0 0 0-.132-.131.13.13 0 0 0-.131.131c-.764 5.709-1.529 14.558 3.667 16.481 5.828 2.162 11.489-.883 15.526-4.92a54.76 54.76 0 0 0 7.476-9.161c0-.108-.096-.227-.143-.131z" fill="#1e3d60"/><path d="M86.85 197.029c.016.806-.13 1.608-.429 2.357s-.744 1.431-1.31 2.006a6.05 6.05 0 0 1-1.986 1.341c-.745.31-1.544.468-2.35.464a6.29 6.29 0 0 1-4.393-1.807c-1.172-1.152-1.847-2.718-1.881-4.361a6.03 6.03 0 0 1 .418-2.362c.296-.751.74-1.436 1.306-2.012s1.241-1.033 1.987-1.344a6.03 6.03 0 0 1 2.353-.462 6.32 6.32 0 0 1 6.285 6.18h0z" fill="#fff"/><path d="M108.489 67.695c-.291.524-.687.981-1.165 1.343s-1.025.62-1.607.758a4.9 4.9 0 0 1-1.557.165c-.097.013-.195.013-.292 0h-.278c-.069-.008-.134-.038-.184-.086s-.084-.111-.095-.18h0v-.215-.114c-.088-.975-.088-2.532-.088-2.532-.342.203-2.114 1.139-2.114.62-.151-4.385.141-8.775.873-13.101.009-.025.025-.047.046-.063s.048-.024.075-.024.052.008.074.024.038.038.046.063c.164 4.089-.393 8.165-.291 12.266.633-.34 1.31-.591 2.012-.747.14 0-.063 2.886 0 3.329.799.038 1.597-.085 2.347-.361a5.97 5.97 0 0 0 2.02-1.246c.14-.076.241 0 .178.101z" fill="#242e39"/><path d="M179.601 221.715H51.85v5.822h127.751a2 2 0 0 0 2-2v-1.822a2 2 0 0 0-2-2z" fill="#fff"/><path opacity=".5" d="M153.821 221.715l4.45 5.822H51.85v-5.822h101.971z" fill="#62778f"/><path d="M148.277 227.537H21.823l-9.558-78.027c-.511-4.173 2.745-7.852 6.948-7.852h109.694a10 10 0 0 1 9.926 8.785l9.444 77.094z" fill="#e7eaee"/><path d="M87.494 184.598c.019 1.005-.162 2.004-.535 2.938s-.927 1.784-1.633 2.5-1.547 1.285-2.475 1.671-1.924.584-2.93.58a7.85 7.85 0 0 1-7.82-7.689 7.51 7.51 0 0 1 .521-2.944 7.5 7.5 0 0 1 1.627-2.508c.705-.719 1.547-1.289 2.476-1.675s1.927-.583 2.933-.577a7.88 7.88 0 0 1 5.482 2.261c1.463 1.438 2.307 3.391 2.353 5.443h0z" fill="#064ea4"/><defs ><path id="B" d="M42.75 118.31l23.803 23.348s31.303-27.719 40.368-42.815 2.388-16.505-15.729-7.906S42.75 118.31 42.75 118.31z"/></defs></svg>